:SAMPLES-PER-SECOND 30
:FULLY-SPECIFIED
:DEGREES
341
root  -2.64635 39.2811 28.5789 -174.902 15.3251 175.4
RightUpLeg  -14.7425 -22.1145 -8.9971
RightLeg  32.3624 -11.7323 -8.13528
RightFoot  -6.90957 -0.778003 18.736
RightToes  -1.74624e-010 0 -3.6325e-017
Spine  7.68537 -1.33531 -6.44554
Spine1  13.6039 -2.64608 1.91622
HEad  -22.07 13.432 -4.40126
LeftShoulder1  1.10021 -1.78758 -13.8404
LeftArm  24.3301 3.6909 -57.2324
LeftForeArm  68.5024 -78.8591 -92.0713
LeftHand  -1.50205 -1.08743 26.7286
RightShoulder  0.579836 -0.652234 13.4888
RightArm  -3.32029 -0.358072 54.6892
RightForeArm  97.2758 70.6167 142.828
RightHand  -0.110853 -2.75159 -4.28513
LeftUpLeg  -6.88899 3.06263 4.74931
LeftLeg  10.9824 6.23709 1.56211
LeftFoot  -11.5507 0.0415093 -15.0868
LeftToes  -5.82109e-011 1.10366e-010 -8.03124e-011
342
root  -2.48448 39.2078 28.5124 -174.739 16.1017 175.181
RightUpLeg  -14.1353 -21.9411 -8.14942
RightLeg  33.797 -13.2458 -9.60617
RightFoot  -7.95798 -0.650396 20.0118
RightToes  -1.74624e-010 0 -3.6325e-017
Spine  7.47033 -1.13321 -6.49173
Spine1  13.1488 -2.32019 1.66047
HEad  -21.9628 13.5807 -4.20105
LeftShoulder1  1.08882 -1.80315 -13.5365
LeftArm  24.8416 3.99055 -57.2943
LeftForeArm  55.1831 -78.6374 -81.7789
LeftHand  -1.60139 -0.923426 29.1098
RightShoulder  0.566631 -0.717637 13.4967
RightArm  -4.78004 -0.109111 54.2329
RightForeArm  97.8635 72.4943 138.383
RightHand  -0.0763844 -2.70413 -2.91101
LeftUpLeg  -7.29541 2.55632 4.51586
LeftLeg  12.1032 7.17829 2.26445
LeftFoot  -12.838 -0.125808 -15.3874
LeftToes  -5.82109e-011 1.10366e-010 -8.03124e-011
343
root  -2.18908 39.0697 28.3992 -174.529 17.4052 174.722
RightUpLeg  -14.7594 -21.3817 -7.6462
RightLeg  36.6508 -14.478 -11.5382
RightFoot  -8.29299 -0.653069 22.064
RightToes  -1.74624e-010 0 -3.6325e-017
Spine  7.1154 -0.680847 -7.64103
Spine1  12.3623 -2.02516 2.16263
HEad  -21.3978 13.813 -3.94226
LeftShoulder1  1.05898 -1.7002 -13.3524
LeftArm  25.2203 4.47024 -58.163
LeftForeArm  38.345 -77.7403 -67.8801
LeftHand  -1.81537 -1.06142 32.139
RightShoulder  0.578547 -0.670047 13.581
RightArm  -5.74841 -0.285528 54.2045
RightForeArm  93.0066 75.4684 127.715
RightHand  -0.177048 -1.45207 -4.88498
LeftUpLeg  -7.84665 2.04043 4.25035
LeftLeg  14.0892 9.0221 3.21831
LeftFoot  -15.6075 -0.511657 -16.0907
LeftToes  -5.82109e-011 1.10366e-010 -8.03124e-011
344
root  -1.81118 38.7627 28.2916 -174.785 18.9816 173.976
RightUpLeg  -16.8153 -20.7204 -7.79103
RightLeg  42.2126 -14.2418 -13.7009
RightFoot  -7.21858 -0.91895 23.7935
RightToes  -1.74624e-010 0 -3.6325e-017
Spine  7.53808 0.0400663 -9.35238
Spine1  10.918 -1.58497 2.81223
HEad  -20.6791 13.846 -3.77644
LeftShoulder1  1.04656 -1.6351 -13.3708
LeftArm  25.6762 3.63375 -60.1268
LeftForeArm  16.0381 -74.4419 -47.1959
LeftHand  -2.12061 -1.57983 34.6077
RightShoulder  0.653387 -0.33691 13.803
RightArm  -6.43196 -2.29669 54.8202
RightForeArm  83.7039 78.2701 108.313
RightHand  -0.718068 2.28713 -10.6924
LeftUpLeg  -8.6268 1.64964 4.01976
LeftLeg  17.851 11.6731 4.73127
LeftFoot  -18.681 -0.996064 -17.1635
LeftToes  -5.82109e-011 1.10366e-010 -8.03124e-011
345
root  -1.39229 38.1843 28.2081 -175.855 20.3638 173.491
RightUpLeg  -19.809 -19.887 -8.14215
RightLeg  50.596 -12.3245 -15.8876
RightFoot  -4.96657 -1.33162 23.1223
RightToes  -1.74624e-010 0 -3.6325e-017
Spine  8.86701 0.751913 -10.997
Spine1  9.49369 -1.30312 3.54539
HEad  -20.1819 14.2735 -3.79418
LeftShoulder1  1.10123 -1.81137 -13.7555
LeftArm  25.7992 0.75029 -62.8393
LeftForeArm  -2.70439 -67.2989 -29.4338
LeftHand  -2.42355 -2.09952 36.6563
RightShoulder  0.746925 0.0470646 14.2411
RightArm  -6.88887 -5.23708 56.1373
RightForeArm  59.0828 78.602 69.3547
RightHand  -1.98726 6.91339 -18.8452
LeftUpLeg  -9.57889 2.26973 4.5018
LeftLeg  23.7219 13.2367 6.61886
LeftFoot  -20.3648 -1.32791 -18.2541
LeftToes  -5.82109e-011 1.10366e-010 -8.03124e-011
346
root  -0.92238 37.334 28.1234 -177.677 21.6019 173.444
RightUpLeg  -23.3628 -18.8339 -8.43688
RightLeg  60.5932 -9.47239 -18.0373
RightFoot  -2.99989 -1.45575 19.4991
RightToes  -1.74624e-010 0 -3.6325e-017
Spine  10.33 1.28461 -12.9885
Spine1  8.91688 -1.53798 4.93818
HEad  -19.8485 15.5853 -3.90195
LeftShoulder1  1.23794 -2.22631 -14.7258
LeftArm  24.3278 -3.27083 -65.1763
LeftForeArm  -13.4735 -59.5479 -20.6447
LeftHand  -2.60968 -2.2357 38.6153
RightShoulder  0.821989 0.261384 15.1185
RightArm  -7.23217 -6.15417 57.2898
RightForeArm  29.4031 69.4275 29.5482
RightHand  -3.27594 9.22523 -26.0802
LeftUpLeg  -10.1665 3.96103 5.82138
LeftLeg  30.495 12.2221 8.01151
LeftFoot  -21.1748 -1.58522 -19.7216
LeftToes  -5.82109e-011 1.10366e-010 -8.03124e-011
347
root  -0.34573 36.3259 28.0163 179.85 23.2108 173.039
RightUpLeg  -27.4327 -17.7813 -9.33196
RightLeg  69.9646 -6.56064 -20.0073
RightFoot  -2.8277 -1.17276 15.3323
RightToes  -1.74624e-010 0 -3.6325e-017
Spine  11.4939 2.09094 -15.8579
Spine1  9.01349 -1.73226 6.6556
HEad  -19.6488 16.6942 -3.97268
LeftShoulder1  1.38711 -2.61144 -15.9193
LeftArm  20.4412 -7.81453 -66.7264
LeftForeArm  -17.0546 -56.0752 -18.2182
LeftHand  -2.67493 -2.26116 39.3791
RightShoulder  0.964811 0.622428 16.7833
RightArm  -7.54065 -5.02503 56.7523
RightForeArm  12.1474 51.086 12.7602
RightHand  -3.45998 8.94346 -27.7782
LeftUpLeg  -9.64582 5.59317 7.22023
LeftLeg  36.598 9.64817 7.986
LeftFoot  -23.111 -2.17216 -22.1073
LeftToes  -5.82109e-011 1.10366e-010 -8.03124e-011
348
root  0.404152 35.2876 27.8927 177.17 24.7465 172.029
RightUpLeg  -32.0317 -17.2526 -11.0611
RightLeg  76.3378 -4.37873 -21.3333
RightFoot  -4.6985 -0.809223 13.3813
RightToes  -1.74624e-010 0 -3.6325e-017
Spine  12.7003 3.45731 -18.6895
Spine1  9.06624 -1.22272 7.75085
HEad  -20.0143 16.2581 -4.15292
LeftShoulder1  1.42173 -2.66099 -16.3291
LeftArm  15.8839 -13.7226 -68.4278
LeftForeArm  -12.4009 -57.7882 -19.2516
LeftHand  -2.69282 -2.65299 37.8245
RightShoulder  1.25218 1.42689 18.966
RightArm  -7.96758 -6.06114 54.3471
RightForeArm  -0.594773 34.3887 7.52973
RightHand  -2.85194 8.18021 -24.3782
LeftUpLeg  -8.18906 7.4791 8.67591
LeftLeg  41.4812 6.41635 6.45765
LeftFoot  -26.5336 -3.17503 -24.6509
LeftToes  -5.82109e-011 1.10366e-010 -8.03124e-011
349
root  1.39504 34.3765 27.7656 175.436 24.4102 171.472
RightUpLeg  -36.6937 -17.8439 -13.0162
RightLeg  78.1679 -3.69021 -21.6573
RightFoot  -7.33508 -0.530943 13.7401
RightToes  -1.74624e-010 0 -3.6325e-017
Spine  14.4062 4.48792 -20.365
Spine1  8.50346 -0.874358 8.63607
HEad  -21.1212 15.0177 -4.7502
LeftShoulder1  1.30199 -2.31735 -15.5592
LeftArm  12.795 -21.35 -70.1618
LeftForeArm  -1.08677 -62.2088 -22.2794
LeftHand  -2.62901 -3.29731 34.4372
RightShoulder  1.55069 2.26458 20.5931
RightArm  -9.16443 -11.982 51.9272
RightForeArm  -8.11796 27.4272 6.2984
RightHand  -2.68259 8.36048 -22.6867
LeftUpLeg  -6.92498 9.47528 11.4383
LeftLeg  44.7355 3.05731 3.68637
LeftFoot  -29.4199 -4.0375 -26.0937
LeftToes  -5.82109e-011 1.10366e-010 -8.03124e-011
350
root  2.6542 33.7799 27.6094 175.596 21.172 172.364
RightUpLeg  -40.2585 -19.157 -15.1476
RightLeg  75.407 -4.81451 -21.5353
RightFoot  -9.12371 -0.341495 14.2819
RightToes  -1.74624e-010 0 -3.6325e-017
Spine  16.5957 4.01677 -20.8467
Spine1  6.98132 -2.11473 10.7022
HEad  -22.3223 14.8746 -5.7407
LeftShoulder1  1.11967 -1.76412 -14.3465
LeftArm  10.0724 -28.426 -69.3599
LeftForeArm  12.0946 -67.192 -27.1857
LeftHand  -2.6141 -4.06758 31.622
RightShoulder  1.64802 2.56956 20.8434
RightArm  -11.614 -20.0643 51.0418
RightForeArm  -8.99192 28.7092 6.69491
RightHand  -2.87375 8.67135 -23.7333
LeftUpLeg  -6.84385 10.0976 15.794
LeftLeg  45.5654 -0.393323 0.053227
LeftFoot  -30.2491 -4.35447 -26.7863
LeftToes  -5.82109e-011 1.10366e-010 -8.03124e-011
351
root  4.18651 33.6166 27.3273 177.039 16.504 174.034
RightUpLeg  -41.2278 -19.696 -18.4243
RightLeg  68.793 -7.52218 -21.1735
RightFoot  -9.64239 -0.270699 13.7721
RightToes  -1.74624e-010 0 -3.6325e-017
Spine  18.7643 2.40167 -20.3959
Spine1  4.42596 -4.35131 13.7579
HEad  -22.9757 15.8719 -6.60513
LeftShoulder1  0.960334 -1.2157 -13.35
LeftArm  6.56946 -31.2505 -64.4261
LeftForeArm  22.9828 -71.968 -35.5655
LeftHand  -2.62553 -4.39959 30.7437
RightShoulder  1.59461 2.52943 20.0843
RightArm  -14.2773 -25.7937 50.372
RightForeArm  -7.58588 31.6653 7.36853
RightHand  -2.7376 8.46604 -22.9442
LeftUpLeg  -7.09626 7.89981 20.059
LeftLeg  42.7792 -3.33217 -2.83472
LeftFoot  -29.0269 -4.34654 -28.5286
LeftToes  -5.82109e-011 1.10366e-010 -8.03124e-011
